HIERARCHY
ROOT Hip
{
  OFFSET 0.0 0.0 0.0
  CHANNELS 6 Xposition Yposition Zposition Xrotation Yrotation Zrotation
  JOINT LowerSpine
  {
    OFFSET 0.0 0.061367 -0.03653
    CHANNELS 3 Xrotation Yrotation Zrotation
    JOINT MiddleSpine
    {
      OFFSET 0.0 0.056002 0.002633
      CHANNELS 3 Xrotation Yrotation Zrotation
      JOINT Chest
      {
        OFFSET 0.0 0.069296 -0.013882
        CHANNELS 3 Xrotation Yrotation Zrotation
        JOINT Neck
        {
          OFFSET 0.0 0.156156 -0.002923
          CHANNELS 3 Xrotation Yrotation Zrotation
          JOINT Head
          {
            OFFSET 0.0 0.088183 0.023986
            CHANNELS 3 Xrotation Yrotation Zrotation
            End Site
            {
              OFFSET 1e-06 0.123215 0.003678
            }
          }
        }
        JOINT LClavicle
        {
          OFFSET 0.014189 0.150698 0.046467
          CHANNELS 3 Xrotation Yrotation Zrotation
          JOINT LShoulder
          {
            OFFSET 0.082893 0.021616 -0.034976
            CHANNELS 3 Xrotation Yrotation Zrotation
            JOINT LForearm
            {
              OFFSET 0.195645 -0.000695 -0.001695
              CHANNELS 3 Xrotation Yrotation Zrotation
              JOINT LHand
              {
                OFFSET 0.163209 0.000474 -0.000977
                CHANNELS 3 Xrotation Yrotation Zrotation
                End Site
                {
                  OFFSET 0.0 0.006864 0.0
                }
              }
            }
          }
        }
        JOINT RClavicle
        {
          OFFSET -0.014189 0.150698 0.046467
          CHANNELS 3 Xrotation Yrotation Zrotation
          JOINT RShoulder
          {
            OFFSET -0.082908 0.021619 -0.034982
            CHANNELS 3 Xrotation Yrotation Zrotation
            JOINT RForearm
            {
              OFFSET -0.195645 -0.000695 -0.001695
              CHANNELS 3 Xrotation Yrotation Zrotation
              JOINT RHand
              {
                OFFSET -0.163209 0.000474 -0.000977
                CHANNELS 3 Xrotation Yrotation Zrotation
                End Site
                {
                  OFFSET 0.0 0.006864 0.0
                }
              }
            }
          }
        }
      }
    }
  }
  JOINT RThigh
  {
    OFFSET -0.072558 0.02774 -0.005953
    CHANNELS 3 Xrotation Yrotation Zrotation
    JOINT RShin
    {
      OFFSET -0.005253 -0.285537 0.0
      CHANNELS 3 Xrotation Yrotation Zrotation
      JOINT RFoot
      {
        OFFSET 0.0 -0.28038 0.0
        CHANNELS 3 Xrotation Yrotation Zrotation
        JOINT RToe
        {
          OFFSET 0.0 -0.030816 0.064441
          CHANNELS 3 Xrotation Yrotation Zrotation
          End Site
          {
            OFFSET 0.0 0.0 0.043231
          }
        }
      }
    }
  }
  JOINT LThigh
  {
    OFFSET 0.072557 0.027741 -0.005953
    CHANNELS 3 Xrotation Yrotation Zrotation
    JOINT LShin
    {
      OFFSET 0.005253 -0.285539 0.0
      CHANNELS 3 Xrotation Yrotation Zrotation
      JOINT LFoot
      {
        OFFSET 0.0 -0.28038 0.0
        CHANNELS 3 Xrotation Yrotation Zrotation
        JOINT LToe
        {
          OFFSET 0.0 -0.030816 0.064441
          CHANNELS 3 Xrotation Yrotation Zrotation
          End Site
          {
            OFFSET 0.0 0.0 0.043231
          }
        }
      }
    }
  }
}
MOTION
Frames: 10
Frame Time: 0.03333333333333333
-0.103847 0.540346 -0.062305 13.635991 6.854925 27.823393 -7.212523 20.196259 -30.930273 2.848291 -6.577677 -37.074368 1.587559 -24.023195 25.453274 -7.811315 -38.001408 3.595562 -7.465154 35.726833 10.370582 -24.050224 28.905041 0.626554 10.522128 -7.721741 -23.345041 -19.150845 -33.821384 -43.645168 -17.223467 -23.17774 22.424763 16.096888 27.273087 31.499292 4.118275 18.313087 21.394711 -25.799719 39.398335 45.095604 27.490934 12.26559 21.415133 -27.84248 -0.511757 -41.528587 4.978381 12.934249 35.227413 -22.318369 -2.308265 32.023666 0.327289 -33.091793 -20.94269 -23.102602 5.243056 -25.358171 1.61835 29.329441 24.282154 15.047942 1.3419 -33.651585 -14.031043 32.987907 16.837168 
-0.107899 0.534771 -0.075901 13.070872 8.031072 30.368927 -5.734282 21.989647 -33.846443 2.948097 -8.038177 -39.806683 2.713662 -27.763321 27.866644 -7.047312 -40.130241 0.256863 -6.696101 38.984371 11.748789 -31.701025 25.667727 4.114585 12.967159 -5.712533 -18.351255 -15.723142 -27.428558 -45.222347 -15.507236 -24.571962 25.71246 13.486141 34.478241 28.546915 5.556391 17.074661 19.769501 -25.026533 37.144901 47.508648 31.235794 12.631121 20.337662 -28.24309 -1.029198 -43.853882 -0.194937 14.468886 34.438984 -24.383751 0.879502 34.579147 5.066417 -33.884438 -21.277054 -22.904882 7.829454 -29.022041 -3.222707 32.858479 28.144918 15.582203 -4.721763 -36.101089 -15.424671 35.42104 20.019392 
-0.114149 0.541052 -0.062305 13.906196 10.334772 32.757988 -7.255874 24.470703 -35.021042 4.662776 -7.575287 -42.379707 3.417258 -30.906136 28.258879 -8.581956 -43.332283 -1.980097 -6.481941 41.956188 12.893355 -34.919514 27.157787 5.498904 14.019011 -4.77356 -15.089981 -15.701575 -24.907391 -47.499516 -15.345188 -25.946047 28.543213 14.360634 36.980675 30.099821 6.419223 16.320606 16.422338 -27.99526 35.726059 51.390697 33.50555 13.027886 21.455425 -25.568853 -0.189095 -46.913792 -7.988724 18.526329 34.501572 -26.018944 -0.122754 37.113503 6.699061 -35.223862 -23.190605 -21.036547 8.958767 -31.569664 -7.82619 36.677322 30.075212 17.926086 -5.738922 -37.661007 -16.867498 37.392548 22.75206 
-0.117121 0.549164 -0.052731 14.549968 11.423539 33.300426 -7.761704 24.972689 -36.257526 5.159627 -7.083478 -43.670704 3.107605 -32.726181 28.329473 -7.580889 -44.638699 -2.701862 -6.456402 43.450207 13.404922 -35.879013 28.690125 5.946723 12.998357 -3.90993 -14.424459 -16.818705 -23.004349 -47.911572 -15.308534 -26.641823 29.860542 15.873551 36.927719 31.257759 5.267097 15.086174 15.207829 -31.535673 36.059944 53.882145 34.463436 13.200864 22.270733 -24.759638 -0.904811 -47.806355 -11.682292 19.830997 35.063404 -26.086267 -1.611449 38.195194 6.910455 -36.094681 -24.18331 -20.62579 8.227192 -32.853935 -10.284565 37.977329 31.122021 19.703974 -4.877637 -38.142914 -17.555592 38.362961 24.005678 
-0.122047 0.553981 -0.044802 15.327042 11.857361 33.045982 -8.221031 24.548826 -37.184139 5.279148 -6.935727 -44.122066 1.930515 -34.111099 28.136662 -6.417852 -45.166405 -2.703221 -6.111978 44.028561 13.590246 -35.56739 29.945885 5.969334 12.817029 -3.77957 -14.437348 -17.738928 -22.132101 -47.726696 -15.474808 -26.913965 30.33757 18.128559 35.540283 31.629124 3.673729 14.448816 14.231165 -35.876625 37.217949 55.914932 34.674126 13.230924 22.862085 -24.773495 -2.551905 -47.446003 -14.526209 19.942642 35.757477 -25.126238 -2.832686 38.88332 7.190109 -36.500069 -24.520132 -20.960243 6.664424 -33.360455 -11.575711 38.159489 31.423733 21.0912 -3.137125 -38.113529 -17.529083 38.811554 24.559967 
-0.125008 0.557749 -0.03683 16.428617 12.936569 32.036186 -9.427931 24.347366 -36.96207 5.412106 -7.033656 -44.137974 -0.177838 -35.144432 27.210224 -5.716663 -45.395645 -2.584151 -5.433105 44.12429 13.640649 -34.160339 31.484703 5.501589 13.138762 -3.452038 -14.987741 -19.090117 -22.556713 -47.760193 -15.630559 -26.922249 30.465954 20.857752 32.958351 31.954327 2.664596 14.460794 12.775635 -43.374329 39.592106 59.074005 34.564724 13.167923 23.265152 -24.503553 -3.582678 -46.6558 -16.71818 21.174278 35.695412 -24.116346 -4.60121 39.068787 7.560314 -36.605129 -24.502663 -22.001558 5.009582 -32.935219 -12.879797 38.444405 31.232836 23.055769 -0.894367 -37.272232 -17.198969 39.005367 24.727755 
-0.123954 0.560715 -0.031829 17.691545 14.480676 30.607113 -10.907195 24.439024 -36.007778 5.525717 -7.266514 -43.885036 -2.308359 -35.903999 25.926079 -5.029301 -45.413204 -2.55789 -4.411439 43.946243 13.660329 -32.212566 33.09132 4.526505 13.874365 -3.150369 -15.725341 -20.506115 -23.352797 -47.812748 -15.705645 -26.691463 30.49478 23.811565 29.634115 32.197418 1.539113 14.817149 11.319825 -55.535038 42.475258 63.505524 34.298027 13.0998 23.512278 -24.352615 -4.417577 -45.585808 -18.328051 23.289301 34.793228 -23.09453 -6.464397 38.968533 7.740437 -36.467724 -24.463522 -22.919165 3.378022 -32.245403 -14.01959 38.80825 30.208035 25.13464 1.461473 -35.940228 -16.823303 39.045181 24.570419 
-0.117134 0.561483 -0.027473 19.293421 16.335781 28.910809 -12.796629 24.843212 -34.560356 5.752379 -7.758775 -43.605751 -4.620387 -36.704426 24.278801 -4.345201 -45.457859 -2.706281 -3.107209 43.751602 13.736698 -29.698427 35.01593 2.677946 14.989497 -2.97601 -16.40069 -22.081224 -24.543207 -48.188107 -15.67426 -26.521461 30.550955 27.056698 25.576555 32.511303 0.294041 15.787578 9.252727 -73.088943 45.834576 69.93988 33.94833 13.081716 23.889879 -24.378027 -4.897173 -44.464729 -19.677631 26.172583 33.141964 -22.136488 -8.64273 38.71487 7.84773 -36.310383 -24.489988 -23.809649 1.929914 -31.609112 -15.188259 39.460648 28.699049 27.305313 4.377063 -34.304279 -16.552284 39.079334 24.415218 
-0.103467 0.562639 -0.019943 20.776808 18.361855 27.145359 -14.738792 25.694231 -32.738796 6.240007 -8.17788 -43.398785 -6.798609 -37.466904 22.628286 -3.718925 -45.602779 -3.255436 -1.814025 43.708435 13.634109 -26.86166 37.040924 0.226299 16.258013 -2.783843 -17.051628 -23.477835 -25.460564 -48.713806 -15.538135 -26.418453 30.770119 30.278475 21.000843 32.806732 -0.670403 16.476355 6.850511 -93.042152 48.251751 77.892159 33.772793 13.00961 24.244516 -24.568926 -5.305989 -43.42276 -20.529636 29.94232 30.658855 -20.918468 -11.155441 38.4972 8.02501 -36.131367 -24.692743 -24.045244 0.884022 -31.599482 -16.373468 40.286835 27.074694 29.138386 7.19712 -32.570141 -16.420183 39.12513 24.409309 
-0.088377 0.565834 -0.011744 21.994976 19.56743 25.742476 -16.19899 26.807989 -30.790319 6.637078 -8.323586 -43.362797 -8.548439 -37.972736 21.37833 -2.692788 -45.610687 -4.146028 -0.895042 43.810276 13.37005 -24.029285 38.824993 -2.560051 17.024427 -2.337571 -17.654928 -24.544979 -26.053875 -49.134125 -15.412971 -26.398462 30.998857 32.674915 16.376934 33.055077 -1.785677 17.069899 4.562492 -108.661194 49.183453 84.721153 33.891865 12.904292 24.313299 -25.007065 -5.857529 -42.213558 -20.723713 33.35952 27.859049 -19.467546 -13.818312 38.21743 8.699917 -35.862907 -24.853088 -23.571974 0.76234 -31.835033 -17.434275 41.234428 25.553207 30.794502 9.849022 -30.839649 -16.536264 39.164227 24.572552 
